<?xml version="1.0" encoding="UTF-8" standalone="no"?>
<!DOCTYPE svg PUBLIC "-//W3C//DTD SVG 1.1//EN"
 "http://www.w3.org/Graphics/SVG/1.1/DTD/svg11.dtd">
<!-- Generated by graphviz version 7.0.4 (20221203.1631)
 -->
<!-- Title: G Pages: 1 -->
<svg width="245pt" height="332pt"
 viewBox="0.00 0.00 245.11 332.00" xmlns="http://www.w3.org/2000/svg" xmlns:xlink="http://www.w3.org/1999/xlink">
<g id="graph0" class="graph" transform="scale(1 1) rotate(0) translate(4 328)">
<title>G</title><style>.edge>path:hover{stroke-width:8}</style>
<polygon fill="white" stroke="none" points="-4,4 -4,-328 241.11,-328 241.11,4 -4,4"/>
<!-- baseline_run -->
<g id="node1" class="node">
<title>baseline_run</title><style>.edge>path:hover{stroke-width:8}</style>
<ellipse fill="#8f3d3d" stroke="black" cx="135.26" cy="-18" rx="41.59" ry="18"/>
<text text-anchor="middle" x="135.26" y="-15.5" font-family="Helvetica,sans-Serif" font-size="10.00" fill="#ffffff">baseline_run</text>
</g>
<!-- eval_run -->
<g id="node2" class="node">
<title>eval_run</title><style>.edge>path:hover{stroke-width:8}</style>
<ellipse fill="#b3a44c" stroke="black" cx="173.26" cy="-90" rx="31.4" ry="18"/>
<text text-anchor="middle" x="173.26" y="-87.5" font-family="Helvetica,sans-Serif" font-size="10.00" fill="#000000">eval_run</text>
</g>
<!-- eval_run&#45;&gt;baseline_run -->
<g id="edge1" class="edge">
<title>eval_run&#45;&gt;baseline_run</title><style>.edge>path:hover{stroke-width:8}</style>
<path fill="none" stroke="black" d="M164.25,-72.41C159.96,-64.51 154.72,-54.85 149.88,-45.94"/>
<polygon fill="#b3a44c" stroke="black" points="153.03,-44.41 145.18,-37.29 146.88,-47.74 153.03,-44.41"/>
</g>
<!-- models -->
<g id="node3" class="node">
<title>models</title><style>.edge>path:hover{stroke-width:8}</style>
<ellipse fill="#64c040" stroke="black" cx="28.26" cy="-162" rx="28.01" ry="18"/>
<text text-anchor="middle" x="28.26" y="-159.5" font-family="Helvetica,sans-Serif" font-size="10.00" fill="#000000">models</text>
</g>
<!-- models&#45;&gt;baseline_run -->
<g id="edge2" class="edge">
<title>models&#45;&gt;baseline_run</title><style>.edge>path:hover{stroke-width:8}</style>
<path fill="none" stroke="black" d="M30.14,-143.59C32.08,-129.16 35.75,-108.28 42.26,-91"/>
<path fill="none" stroke="black" d="M42.26,-89C51.31,-64.94 74.32,-47.51 95.19,-36.06"/>
<polygon fill="#64c040" stroke="black" points="96.55,-39.3 103.84,-31.61 93.35,-33.07 96.55,-39.3"/>
</g>
<!-- train -->
<g id="node6" class="node">
<title>train</title><style>.edge>path:hover{stroke-width:8}</style>
<ellipse fill="#5d439d" stroke="black" cx="97.26" cy="-90" rx="27" ry="18"/>
<text text-anchor="middle" x="97.26" y="-87.5" font-family="Helvetica,sans-Serif" font-size="10.00" fill="#ffffff">train</text>
</g>
<!-- models&#45;&gt;train -->
<g id="edge3" class="edge">
<title>models&#45;&gt;train</title><style>.edge>path:hover{stroke-width:8}</style>
<path fill="none" stroke="black" d="M42.89,-146.15C52.25,-136.65 64.58,-124.15 75.13,-113.45"/>
<polygon fill="#64c040" stroke="black" points="77.53,-116 82.05,-106.42 72.54,-111.09 77.53,-116"/>
</g>
<!-- task -->
<g id="node4" class="node">
<title>task</title><style>.edge>path:hover{stroke-width:8}</style>
<ellipse fill="#33cc8a" stroke="black" cx="177.26" cy="-162" rx="27" ry="18"/>
<text text-anchor="middle" x="177.26" y="-159.5" font-family="Helvetica,sans-Serif" font-size="10.00" fill="#000000">task</text>
</g>
<!-- task&#45;&gt;baseline_run -->
<g id="edge4" class="edge">
<title>task&#45;&gt;baseline_run</title><style>.edge>path:hover{stroke-width:8}</style>
<path fill="none" stroke="black" d="M232.26,-89C224.78,-63.35 200.33,-45.81 177.85,-34.7"/>
<polygon fill="#33cc8a" stroke="black" points="179.31,-31.52 168.76,-30.53 176.39,-37.88 179.31,-31.52"/>
<path fill="none" stroke="black" d="M196.89,-149.34C215.38,-136.68 239.26,-115.04 232.26,-91"/>
</g>
<!-- task&#45;&gt;eval_run -->
<g id="edge5" class="edge">
<title>task&#45;&gt;eval_run</title><style>.edge>path:hover{stroke-width:8}</style>
<path fill="none" stroke="black" d="M176.27,-143.7C175.85,-136.41 175.35,-127.73 174.89,-119.54"/>
<polygon fill="#33cc8a" stroke="black" points="178.38,-119.4 174.32,-109.62 171.4,-119.8 178.38,-119.4"/>
</g>
<!-- task&#45;&gt;train -->
<g id="edge6" class="edge">
<title>task&#45;&gt;train</title><style>.edge>path:hover{stroke-width:8}</style>
<path fill="none" stroke="black" d="M161.45,-147.17C150.06,-137.2 134.46,-123.56 121.5,-112.21"/>
<polygon fill="#33cc8a" stroke="black" points="124,-109.75 114.17,-105.8 119.39,-115.02 124,-109.75"/>
</g>
<!-- torch -->
<g id="node5" class="node">
<title>torch</title><style>.edge>path:hover{stroke-width:8}</style>
<ellipse fill="#198ee6" stroke="black" cx="111.26" cy="-306" rx="27" ry="18"/>
<text text-anchor="middle" x="111.26" y="-303.5" font-family="Helvetica,sans-Serif" font-size="10.00" fill="#ffffff">torch</text>
</g>
<!-- torch&#45;&gt;baseline_run -->
<g id="edge7" class="edge">
<title>torch&#45;&gt;baseline_run</title><style>.edge>path:hover{stroke-width:8}</style>
<path fill="none" stroke="black" d="M84.26,-233C73.16,-203.94 87.34,-193.96 84.26,-163"/>
<path fill="none" stroke="black" d="M84.26,-161C80.66,-124.9 29.48,-124.96 42.26,-91"/>
</g>
<!-- torch&#45;&gt;models -->
<g id="edge8" class="edge">
<title>torch&#45;&gt;models</title><style>.edge>path:hover{stroke-width:8}</style>
<path fill="none" stroke="black" d="M84.26,-233C77.35,-214.93 63.95,-197.9 51.99,-185.16"/>
<polygon fill="#198ee6" stroke="black" points="54.6,-182.83 45.09,-178.15 49.61,-187.74 54.6,-182.83"/>
<path fill="none" stroke="black" d="M104.68,-288.04C99.19,-273.87 91.18,-253.13 84.26,-235"/>
</g>
<!-- torch&#45;&gt;train -->
<g id="edge9" class="edge">
<title>torch&#45;&gt;train</title><style>.edge>path:hover{stroke-width:8}</style>
<path fill="none" stroke="black" d="M84.26,-161C82.86,-146.97 85.29,-131.54 88.41,-118.75"/>
<polygon fill="#198ee6" stroke="black" points="91.73,-119.89 90.98,-109.32 84.97,-118.04 91.73,-119.89"/>
</g>
<!-- utils -->
<g id="node7" class="node">
<title>utils</title><style>.edge>path:hover{stroke-width:8}</style>
<ellipse fill="#cc33b6" stroke="black" cx="158.26" cy="-234" rx="27" ry="18"/>
<text text-anchor="middle" x="158.26" y="-231.5" font-family="Helvetica,sans-Serif" font-size="10.00" fill="#ffffff">utils</text>
</g>
<!-- torch&#45;&gt;utils -->
<g id="edge10" class="edge">
<title>torch&#45;&gt;utils</title><style>.edge>path:hover{stroke-width:8}</style>
<path fill="none" stroke="black" d="M121.92,-289.12C127.63,-280.61 134.8,-269.94 141.25,-260.32"/>
<polygon fill="#198ee6" stroke="black" points="144.12,-262.33 146.79,-252.08 138.31,-258.43 144.12,-262.33"/>
</g>
<!-- train&#45;&gt;baseline_run -->
<g id="edge11" class="edge">
<title>train&#45;&gt;baseline_run</title><style>.edge>path:hover{stroke-width:8}</style>
<path fill="none" stroke="black" d="M106.07,-72.76C110.47,-64.67 115.9,-54.66 120.88,-45.49"/>
<polygon fill="#5d439d" stroke="black" points="123.81,-47.42 125.5,-36.96 117.66,-44.08 123.81,-47.42"/>
</g>
<!-- utils&#45;&gt;baseline_run -->
<g id="edge12" class="edge">
<title>utils&#45;&gt;baseline_run</title><style>.edge>path:hover{stroke-width:8}</style>
<path fill="none" stroke="black" d="M176.35,-220.21C188.64,-210.56 204.24,-196.23 213.26,-180 232.9,-144.64 243.58,-129.83 232.26,-91"/>
</g>
<!-- utils&#45;&gt;task -->
<g id="edge13" class="edge">
<title>utils&#45;&gt;task</title><style>.edge>path:hover{stroke-width:8}</style>
<path fill="none" stroke="black" d="M162.86,-216.05C164.91,-208.49 167.38,-199.37 169.7,-190.85"/>
<polygon fill="#cc33b6" stroke="black" points="173.06,-191.82 172.3,-181.25 166.3,-189.98 173.06,-191.82"/>
</g>
<!-- utils&#45;&gt;train -->
<g id="edge14" class="edge">
<title>utils&#45;&gt;train</title><style>.edge>path:hover{stroke-width:8}</style>
<path fill="none" stroke="black" d="M151.02,-216.15C140.61,-191.92 121.3,-146.96 108.87,-118.05"/>
<polygon fill="#cc33b6" stroke="black" points="112.24,-117.02 105.08,-109.22 105.81,-119.79 112.24,-117.02"/>
</g>
</g>
</svg>
